# xmcd
#
# Track frame offsets:
# 150
# 24785
# 57618
# 86491
# 119359
# 159685
# 186912
# 222131
# 257879
# 295631
#
# Disc length: 4357 seconds
#
# Revision: 0
# Processed by: cddbd v1.5.2PL0 Copyright (c) Steve Scherf et al.
# Submitted via: Axialis_AX_CDPlayer 2.6
#
DISCID=8b11030a
DTITLE=Sas, Julian - A Light In The Dark
DYEAR=1900
DGENRE=
TTITLE0=A Light In The Dark
TTITLE1=County Jail Blues
TTITLE2=Losing Ground
TTITLE3=Serves Me Right To Suffer
TTITLE4=Blues For J
TTITLE5=Is This What They Call The Blues
TTITLE6=Where Will It End?
TTITLE7=Wake Up Your Mind
TTITLE8=Ragin' River
TTITLE9=Blues For The Lost And Found
EXTD=
EXTT0=
EXTT1=
EXTT2=
EXTT3=
EXTT4=
EXTT5=
EXTT6=
EXTT7=
EXTT8=
EXTT9=
PLAYORDER=
